<!DOCTYPE svg PUBLIC "-//W3C//DTD SVG 1.1//EN" "http://www.w3.org/Graphics/SVG/1.1/DTD/svg11.dtd">
<!-- Uploaded to: SVG Repo, www.svgrepo.com, Transformed by: SVG Repo Mixer Tools -->
<svg fill="#831d83" version="1.1" id="Capa_1" xmlns="http://www.w3.org/2000/svg" xmlns:xlink="http://www.w3.org/1999/xlink" width="64px" height="64px" viewBox="0 0 39.322 39.322" xml:space="preserve" stroke="#831d83" stroke-width="0.00039322">
<g id="SVGRepo_bgCarrier" stroke-width="0"/>
<g id="SVGRepo_tracerCarrier" stroke-linecap="round" stroke-linejoin="round"/>
<g id="SVGRepo_iconCarrier"> <g> <path d="M26.626,14.418l6.589-6.587l2.12,2.121l-6.588,6.587L26.626,14.418z M33.174,24.942l0.799,0.961l-0.801,0.96 c-0.293,0.354-7.281,8.619-16.187,8.619s-15.893-8.27-16.186-8.619L0,25.903l0.799-0.961c0.293-0.353,7.283-8.62,16.186-8.62 c0.867,0,1.75,0.087,2.639,0.245l2.459-5.584l7.146-7.143l2.121,2.121l-6.748,6.746l-2.681,6.083 c0.882,0.704,1.616,1.581,2.15,2.582l6.383-2.812l6.747-6.748l2.121,2.121l-7.145,7.146l-2.025,0.894 C32.001,23.559,33.115,24.874,33.174,24.942z M22.016,25.559L18.22,27.23l-0.551,0.242l0,0l-3.535,1.559l3.911-8.878 c-0.413-0.104-0.838-0.177-1.284-0.177c-2.916,0-5.287,2.371-5.287,5.287c0,2.914,2.372,5.285,5.287,5.285 C19.574,30.551,21.86,28.334,22.016,25.559z M3.996,25.901c1.227,1.243,3.633,3.429,6.653,4.938 c-1.346-1.474-2.175-3.428-2.175-5.575c0-1.273,0.298-2.479,0.813-3.559C6.909,23.127,5.031,24.85,3.996,25.901z M29.975,25.901 c-0.656-0.671-1.664-1.609-2.91-2.567l-2.086,0.92c0.041,0.332,0.067,0.667,0.067,1.012c0,2.338-0.978,4.448-2.54,5.957 C25.907,29.725,28.641,27.256,29.975,25.901z"/> </g> </g>
</svg>