<!DOCTYPE svg PUBLIC "-//W3C//DTD SVG 1.1//EN" "http://www.w3.org/Graphics/SVG/1.1/DTD/svg11.dtd">
<!-- Uploaded to: SVG Repo, www.svgrepo.com, Transformed by: SVG Repo Mixer Tools -->
<svg height="64px" width="64px" version="1.1" id="Capa_1" xmlns="http://www.w3.org/2000/svg" xmlns:xlink="http://www.w3.org/1999/xlink" viewBox="0 0 355.375 355.375" xml:space="preserve" fill="#000000" stroke="#000000" stroke-width="0.00355375">
<g id="SVGRepo_bgCarrier" stroke-width="0"/>
<g id="SVGRepo_tracerCarrier" stroke-linecap="round" stroke-linejoin="round"/>
<g id="SVGRepo_iconCarrier"> <g> <g> <path style="fill:#831d83;" d="M245.919,77.548c-40.145,0-78.118,22.447-101.58,60.057l-7.882,12.632l7.882,12.632 c23.462,37.603,61.435,60.057,101.58,60.057s78.124-22.453,101.58-60.057l7.876-12.632l-7.876-12.632 C324.043,99.996,286.058,77.548,245.919,77.548z M225.387,146.287c7.936,0,14.38,6.432,14.38,14.374 c0,7.942-6.444,14.374-14.38,14.374c-7.936,0-14.368-6.432-14.368-14.374C211.018,152.725,217.451,146.287,225.387,146.287z M164.59,150.231c10.347-16.588,24.166-29.894,40.157-38.403c-14.231,10.657-23.48,27.597-23.48,46.738 c0,4.976,0.692,9.78,1.862,14.392C176.16,166.377,169.907,158.758,164.59,150.231z M291.082,186.354 c4.475-8.27,7.023-17.734,7.023-27.788c0-27.68-19.279-50.814-45.121-56.84c30.389,2.5,57.097,20.985,74.27,48.505 C317.778,165.417,305.384,177.828,291.082,186.354z"/> <path style="fill:#831d83;" d="M97.499,181.891V51.64H67.664v130.251c-13.754,5.836-23.426,19.47-23.426,35.318 c0,21.141,17.202,38.343,38.343,38.343s38.343-17.202,38.343-38.343C120.925,201.355,111.252,187.727,97.499,181.891z M82.581,225.718c-4.69,0-8.509-3.819-8.509-8.509s3.819-8.509,8.509-8.509c4.69,0,8.509,3.819,8.509,8.509 S87.271,225.718,82.581,225.718z"/> <path style="fill:#831d83;" d="M76.615,268.882h11.934v34.853H76.615V268.882z M130.31,221.153h34.852v11.934H130.31V221.153z M0,221.153h34.858v11.934H0V221.153z M28.45,283.811l-8.449-8.437l24.631-24.667l8.449,8.437L28.45,283.811z M136.707,283.811 l-24.631-24.661l8.449-8.437l24.631,24.661L136.707,283.811z"/> </g> </g> </g>
</svg>