<!DOCTYPE svg PUBLIC "-//W3C//DTD SVG 1.1//EN" "http://www.w3.org/Graphics/SVG/1.1/DTD/svg11.dtd">
<!-- Uploaded to: SVG Repo, www.svgrepo.com, Transformed by: SVG Repo Mixer Tools -->
<svg fill="#831d83" height="64px" width="64px" version="1.1" id="Capa_1" xmlns="http://www.w3.org/2000/svg" xmlns:xlink="http://www.w3.org/1999/xlink" viewBox="0 0 59.47 59.47" xml:space="preserve">
<g id="SVGRepo_bgCarrier" stroke-width="0"/>
<g id="SVGRepo_tracerCarrier" stroke-linecap="round" stroke-linejoin="round"/>
<g id="SVGRepo_iconCarrier"> <g> <path d="M47.025,19.619l-0.005-0.009l-4.14-3.396c-3.498-3.498-8.102-5.469-13.022-5.632c-0.218-0.007-0.433-0.032-0.653-0.032h0h0 c-5.166,0-10.022,2.011-13.627,5.619l-5.024,4.41l0,0L0,29.842l11.222,9.693l0.003,0.006l4.305,3.716 c1.37,1.37,2.909,2.509,4.57,3.398c2.769,1.481,5.876,2.266,9.105,2.266h0h0c3.217,0,6.315-0.78,9.076-2.251 c1.657-0.883,3.193-2.014,4.561-3.375L59.47,29.842L47.025,19.619z M3.045,29.83l6.1-5.355c-0.409,1.615-0.622,3.267-0.622,4.946 c0,2.002,0.312,3.998,0.9,5.919L3.045,29.83z M23.216,15.594c1.386-0.446,2.834-0.673,4.307-0.673c0.552,0,1,0.447,1,1 s-0.448,1-1,1c-1.264,0-2.506,0.194-3.692,0.577c-0.102,0.032-0.206,0.048-0.307,0.048c-0.422,0-0.815-0.27-0.952-0.693 C22.402,16.328,22.691,15.764,23.216,15.594z M18.859,20.613c-2.151,2.243-3.336,5.194-3.336,8.309c0,0.553-0.448,1-1,1 s-1-0.447-1-1c0-3.633,1.382-7.075,3.893-9.693c0.382-0.397,1.016-0.41,1.414-0.029C19.229,19.581,19.242,20.215,18.859,20.613z M20.006,17.065h0.001c0.018-0.011,0.036-0.021,0.055-0.031c0.111-0.058,0.229-0.093,0.346-0.105 c0.694-0.139,1.016,0.362,1.081,0.48c0.019,0.034,0.449,0.835-0.427,1.396c-0.167,0.106-0.353,0.157-0.538,0.157 c-0.107,0-0.213-0.017-0.314-0.051c-0.291-0.061-0.552-0.228-0.683-0.491C19.293,17.95,19.556,17.336,20.006,17.065z M36.523,30.55 h-1.08c-0.043,0.3-0.104,0.594-0.184,0.881l0.986,0.435c0.505,0.223,0.734,0.813,0.511,1.318c-0.165,0.374-0.531,0.597-0.916,0.597 c-0.135,0-0.272-0.027-0.403-0.085l-0.989-0.437c-0.102,0.163-0.212,0.321-0.327,0.475l0.766,0.766 c0.391,0.391,0.391,1.023,0,1.414c-0.195,0.195-0.451,0.293-0.707,0.293s-0.512-0.098-0.707-0.293l-0.766-0.766 c-0.24,0.18-0.489,0.347-0.751,0.495l0.39,1.005c0.199,0.515-0.056,1.094-0.571,1.294c-0.119,0.046-0.241,0.067-0.361,0.067 c-0.4,0-0.779-0.242-0.933-0.639l-0.389-1.005c-0.186,0.043-0.376,0.076-0.568,0.104v1.08c0,0.553-0.448,1-1,1s-1-0.447-1-1v-1.08 c-0.3-0.043-0.594-0.104-0.881-0.184l-0.436,0.987c-0.165,0.374-0.531,0.596-0.915,0.596c-0.135,0-0.272-0.027-0.404-0.085 c-0.505-0.224-0.733-0.814-0.51-1.319l0.437-0.989c-0.163-0.102-0.321-0.212-0.474-0.327l-0.766,0.766 c-0.195,0.195-0.451,0.293-0.707,0.293s-0.512-0.098-0.707-0.293c-0.391-0.391-0.391-1.023,0-1.414l0.766-0.766 c-0.18-0.24-0.347-0.489-0.495-0.752l-1.006,0.389c-0.119,0.046-0.241,0.067-0.361,0.067c-0.401,0-0.779-0.242-0.933-0.639 c-0.199-0.516,0.057-1.095,0.572-1.294l1.004-0.389c-0.043-0.187-0.076-0.376-0.104-0.568h-1.08c-0.552,0-1-0.447-1-1s0.448-1,1-1 h1.08c0.043-0.3,0.104-0.594,0.184-0.881l-0.986-0.435c-0.505-0.223-0.734-0.813-0.511-1.318c0.223-0.505,0.814-0.732,1.319-0.512 l0.989,0.437c0.102-0.163,0.212-0.321,0.327-0.475l-0.766-0.766c-0.391-0.391-0.391-1.023,0-1.414s1.023-0.391,1.414,0l0.766,0.766 c0.24-0.18,0.489-0.347,0.751-0.495l-0.39-1.005c-0.199-0.515,0.056-1.094,0.571-1.294c0.512-0.199,1.093,0.055,1.294,0.571 l0.389,1.005c0.186-0.043,0.376-0.076,0.568-0.104v-1.08c0-0.553,0.448-1,1-1s1,0.447,1,1v1.08c0.3,0.043,0.594,0.104,0.881,0.184 l0.436-0.987c0.223-0.506,0.814-0.732,1.319-0.511c0.505,0.224,0.733,0.814,0.51,1.319l-0.437,0.989 c0.163,0.102,0.321,0.212,0.474,0.327l0.766-0.766c0.391-0.391,1.023-0.391,1.414,0s0.391,1.023,0,1.414l-0.766,0.766 c0.18,0.24,0.347,0.489,0.495,0.752l1.006-0.389c0.516-0.199,1.094,0.056,1.293,0.571s-0.057,1.095-0.572,1.294l-1.004,0.389 c0.043,0.187,0.076,0.376,0.104,0.568h1.08c0.552,0,1,0.447,1,1S37.075,30.55,36.523,30.55z M48.651,23.539l7.654,6.29 l-7.982,6.458c0.786-2.196,1.199-4.514,1.199-6.867C49.523,27.428,49.222,25.443,48.651,23.539z"/> </g> </g>
</svg>